<svg width="49.99999999999999" height="49.99999999999999" xmlns="http://www.w3.org/2000/svg" clip-rule="evenodd">
 <defs>
  <linearGradient id="0" x1="0.20006" y1="0.79916" x2="4.50567" y2="0.81523">
   <stop stop-color="#fff"/>
   <stop offset="1" stop-color="#fff" stop-opacity="0"/>
  </linearGradient>
  <radialGradient r="0.5" cy="0.5" cx="0.5" spreadMethod="pad" id="svg_3">
   <stop offset="0" stop-opacity="0.99609" stop-color="#fcfcfc"/>
   <stop offset="1" stop-opacity="0.99609" stop-color="#adadad"/>
  </radialGradient>
 </defs>
 <g>
  <title>background</title>
  <rect x="-1" y="-1" width="52" height="52" id="canvas_background" fill="none"/>
 </g>
 <g>
  <title>Layer 1</title>
  <path d="m24.09,23.705l0,2.108c0,0.61 0.305,0.914 0.914,0.914c0.61,0 0.914,-0.305 0.914,-0.914l0,-2.134l2.235,0c0.576,0 0.872,-0.296 0.872,-0.897c0,-0.593 -0.296,-0.889 -0.872,-0.889l-2.235,0l0,-2.235c0,-0.61 -0.305,-0.914 -0.914,-0.914c-0.61,0 -0.914,0.305 -0.914,0.914l0,2.235l-2.184,0c-0.584,0 -0.872,0.296 -0.872,0.889c0,0.601 0.288,0.897 0.872,0.897l2.184,0.025m7.51,13.741l-1.041,-2.531c-1.685,-0.364 -3.539,-0.542 -5.554,-0.542c-1.998,0 -3.835,0.178 -5.503,0.542l-1.041,2.506c2.049,-0.516 4.233,-0.77 6.545,-0.77c2.286,0 4.479,0.262 6.596,0.796m-2.083,-5.114l-0.72,-1.736l0,-0.669c-1.253,-0.178 -2.523,-0.271 -3.793,-0.271c-1.236,0 -2.498,0.093 -3.768,0.271l-0.025,0.669l-0.669,1.736c1.405,-0.246 2.887,-0.373 4.462,-0.373c1.592,0 3.09,0.127 4.513,0.373m-0.864,9.381c-0.66,-0.499 -1.329,-1.287 -1.99,-2.362l-0.787,0c0,0.813 0.186,1.6 0.567,2.362l2.21,0m-5.114,0c0.381,-0.813 0.576,-1.6 0.576,-2.362l-0.796,0c-0.643,1.058 -1.312,1.846 -2.02,2.362l2.235,0" fill="url(#0)" id="svg_2"/>
  <ellipse fill="url(#svg_3)" stroke="null" stroke-width="null" stroke-opacity="null" cx="25" cy="25" id="svg_4" rx="20.59875" ry="20.59875"/>
 </g>
</svg>